<svg width="115" height="115" fill="none" xmlns="http://www.w3.org/2000/svg"><path d="M108.251 105.51H6.749A6.75 6.75 0 010 98.761V28.034a6.749 6.749 0 016.749-6.75H108.25a6.75 6.75 0 016.749 6.75V98.76a6.75 6.75 0 01-6.749 6.749z" fill="url(#paint0_linear)"/><path d="M5.83 58.54l46.97 46.97h55.451A6.75 6.75 0 00115 98.761V28.034a6.72 6.72 0 00-1.389-4.1l-.05-.063a6.36 6.36 0 00-.192-.234l-.058-.067a6.493 6.493 0 00-.22-.237l-.037-.039a6.698 6.698 0 00-.565-.511l-.07-.056a7.102 7.102 0 00-.231-.173l-.084-.06a7.718 7.718 0 00-.249-.165c-.022-.014-.044-.03-.067-.043a6.238 6.238 0 00-.332-.193l-.006-.003a6.84 6.84 0 00-.327-.164l-.097-.044a6.717 6.717 0 00-.626-.246l-.1-.034a6.696 6.696 0 00-.367-.107c-.006 0-.011-.002-.016-.003a6.875 6.875 0 00-.357-.08l-.119-.02a6.25 6.25 0 00-.672-.086c-.041-.003-.081-.007-.122-.009a6.833 6.833 0 00-.396-.012H6.749A6.749 6.749 0 000 28.034V45.85c0 5.075 2.263 9.62 5.83 12.69z" fill="url(#paint1_linear)"/><path d="M37.658 23.894h-1.89a2.655 2.655 0 01-2.654-2.654v-1.89a2.655 2.655 0 012.655-2.654h1.89a2.655 2.655 0 012.654 2.654v1.89a2.654 2.654 0 01-2.655 2.654z" fill="url(#paint2_linear)"/><path d="M79.231 23.894h-1.89a2.654 2.654 0 01-2.654-2.654v-1.89a2.655 2.655 0 012.654-2.654h1.89a2.655 2.655 0 012.655 2.654v1.89a2.654 2.654 0 01-2.655 2.654z" fill="url(#paint3_linear)"/><path d="M108.251 21.285H6.749A6.75 6.75 0 000 28.034V45.85c0 9.243 7.493 16.737 16.737 16.737h81.526c9.244 0 16.737-7.494 16.737-16.737V28.034a6.75 6.75 0 00-6.749-6.75z" fill="url(#paint4_linear)"/><path d="M37.84 57.88a3.676 3.676 0 00-2.746-1.231h-9.179a3.69 3.69 0 00-3.689 3.689v3.78c0 1.091.477 2.07 1.23 2.745l14.359 14.358a3.676 3.676 0 002.745 1.23h9.179a3.69 3.69 0 003.69-3.689v-3.78c0-1.09-.478-2.07-1.232-2.745L37.84 57.88z" fill="url(#paint5_linear)"/><path d="M32.639 63.864l5.235-2.166c.55-.228.91-.765.91-1.36a3.69 3.69 0 00-3.69-3.69h-9.178a3.69 3.69 0 00-3.69 3.69c0 .595.359 1.132.91 1.36l5.235 2.166a5.581 5.581 0 004.268 0z" fill="url(#paint6_linear)"/><path d="M35.094 67.806h-9.179a3.69 3.69 0 01-3.689-3.69v-3.779a3.69 3.69 0 013.69-3.689h9.178a3.69 3.69 0 013.69 3.69v3.779a3.69 3.69 0 01-3.69 3.69z" fill="url(#paint7_linear)"/><path d="M22.79 61.493l6.313 6.313h5.99a3.69 3.69 0 003.69-3.689v-3.78a3.67 3.67 0 00-.967-2.484 3.764 3.764 0 00-.266-.263l-.002-.001a3.738 3.738 0 00-.282-.23l-.014-.009a3.722 3.722 0 00-.289-.19l-.03-.018a3.687 3.687 0 00-.288-.149l-.053-.025a3.721 3.721 0 00-.281-.11c-.025-.009-.05-.02-.076-.028a3.612 3.612 0 00-.275-.075c-.032-.008-.063-.018-.095-.024a3.706 3.706 0 00-.283-.046c-.033-.005-.065-.012-.098-.015a3.745 3.745 0 00-.39-.021h-9.179a3.69 3.69 0 00-3.69 3.69c.001.457.215.88.565 1.154z" fill="url(#paint8_linear)"/><path d="M32.639 63.864l5.235-2.166c.55-.228.91-.765.91-1.36a3.69 3.69 0 00-3.69-3.69h-9.178a3.69 3.69 0 00-3.69 3.69c0 .595.359 1.132.91 1.36l5.235 2.166a5.581 5.581 0 004.268 0z" fill="url(#paint9_linear)"/><path d="M91.83 57.88a3.676 3.676 0 00-2.746-1.231h-9.178a3.69 3.69 0 00-3.69 3.689v3.78c0 1.091.478 2.07 1.231 2.745l14.358 14.358a3.676 3.676 0 002.746 1.23h9.178a3.69 3.69 0 003.69-3.689v-3.78a3.68 3.68 0 00-1.231-2.745L91.83 57.88z" fill="url(#paint10_linear)"/><path d="M86.63 63.864l5.235-2.166c.55-.228.909-.765.909-1.36a3.69 3.69 0 00-3.69-3.69h-9.178a3.69 3.69 0 00-3.69 3.69c0 .595.36 1.132.91 1.36l5.236 2.166a5.581 5.581 0 004.267 0z" fill="url(#paint11_linear)"/><path d="M89.084 67.806h-9.178a3.69 3.69 0 01-3.69-3.69v-3.779a3.69 3.69 0 013.69-3.689h9.178a3.69 3.69 0 013.69 3.69v3.779a3.689 3.689 0 01-3.69 3.69z" fill="url(#paint12_linear)"/><path d="M76.78 61.493l6.314 6.313h5.99a3.69 3.69 0 003.69-3.689v-3.78a3.67 3.67 0 00-.967-2.484 3.743 3.743 0 00-.266-.263l-.002-.001a3.718 3.718 0 00-.283-.23l-.013-.009a3.722 3.722 0 00-.29-.19l-.03-.018a3.703 3.703 0 00-.288-.149l-.053-.025a3.702 3.702 0 00-.28-.11c-.026-.009-.05-.02-.076-.028a3.61 3.61 0 00-.275-.075c-.032-.008-.063-.018-.095-.024a3.692 3.692 0 00-.283-.046c-.033-.005-.065-.012-.098-.015a3.746 3.746 0 00-.39-.021h-9.179a3.69 3.69 0 00-3.69 3.69c0 .457.215.88.565 1.154z" fill="url(#paint13_linear)"/><path d="M86.63 63.864l5.235-2.166c.55-.228.909-.765.909-1.36a3.69 3.69 0 00-3.69-3.69h-9.178a3.69 3.69 0 00-3.69 3.69c0 .595.36 1.132.91 1.36l5.236 2.166a5.581 5.581 0 004.267 0z" fill="url(#paint14_linear)"/><path d="M0 80.764v17.997a6.749 6.749 0 006.749 6.749H108.25A6.75 6.75 0 00115 98.761V80.764H0z" fill="url(#paint15_linear)"/><path d="M77.117 19.903c-.407 0-.82-.066-1.226-.207-5.08-1.766-11.611-2.738-18.391-2.738-6.78 0-13.31.972-18.391 2.738a3.735 3.735 0 01-2.451-7.055C42.506 10.609 49.908 9.49 57.5 9.49c7.592 0 14.994 1.119 20.842 3.15a3.734 3.734 0 01-1.225 7.263z" fill="url(#paint16_linear)"/><path d="M69.89 91.998a.795.795 0 00-.708-.438H45.818a.797.797 0 00-.797.798v2.297c0 .31.179.576.437.708l10.147 10.147h27.796L69.89 91.998z" fill="url(#paint17_linear)"/><path d="M45.02 92.358v2.297c0 .44.358.798.798.798h23.364c.44 0 .797-.357.797-.798v-2.297a.798.798 0 00-.797-.798H45.818a.798.798 0 00-.797.798z" fill="url(#paint18_linear)"/><defs><linearGradient id="paint0_linear" x1="7.919" y1="63.398" x2="136.502" y2="63.398" gradientUnits="userSpaceOnUse"><stop stop-color="#4D4D4D"/><stop offset="1" stop-color="#333"/></linearGradient><linearGradient id="paint1_linear" x1="57.499" y1="88.864" x2="57.499" y2="49.74" gradientUnits="userSpaceOnUse"><stop stop-color="#4D4D4D" stop-opacity="0"/><stop offset="1"/></linearGradient><linearGradient id="paint2_linear" x1="16.142" y1="31.321" x2="8.223" y2="35.565" gradientUnits="userSpaceOnUse"><stop stop-color="#4D4D4D"/><stop offset="1" stop-color="#333"/></linearGradient><linearGradient id="paint3_linear" x1="25.418" y1="48.63" x2="17.499" y2="52.874" gradientUnits="userSpaceOnUse"><stop stop-color="#4D4D4D"/><stop offset="1" stop-color="#333"/></linearGradient><linearGradient id="paint4_linear" x1="57.531" y1="37.16" x2="49.612" y2="85.094" gradientUnits="userSpaceOnUse"><stop stop-color="#4D4D4D"/><stop offset="1" stop-color="#333"/></linearGradient><linearGradient id="paint5_linear" x1="49.671" y1="81.395" x2="20.741" y2="52.465" gradientUnits="userSpaceOnUse"><stop stop-color="#4D4D4D" stop-opacity="0"/><stop offset="1"/></linearGradient><linearGradient id="paint6_linear" x1="30.504" y1="58.622" x2="30.504" y2="65.962" gradientUnits="userSpaceOnUse"><stop stop-color="#FCC344"/><stop offset="1" stop-color="#D48000"/></linearGradient><linearGradient id="paint7_linear" x1="30.504" y1="64.838" x2="30.504" y2="68.464" gradientUnits="userSpaceOnUse"><stop stop-color="#FCC344"/><stop offset="1" stop-color="#D48000"/></linearGradient><linearGradient id="paint8_linear" x1="30.504" y1="67.684" x2="30.504" y2="62.153" gradientUnits="userSpaceOnUse"><stop stop-color="#D48000" stop-opacity="0"/><stop offset="1" stop-color="#D48000"/></linearGradient><linearGradient id="paint9_linear" x1="30.504" y1="60.16" x2="30.504" y2="64.672" gradientUnits="userSpaceOnUse"><stop stop-color="#FCC344"/><stop offset="1" stop-color="#D48000"/></linearGradient><linearGradient id="paint10_linear" x1="103.66" y1="81.396" x2="74.731" y2="52.466" gradientUnits="userSpaceOnUse"><stop stop-color="#4D4D4D" stop-opacity="0"/><stop offset="1"/></linearGradient><linearGradient id="paint11_linear" x1="84.493" y1="58.622" x2="84.493" y2="65.962" gradientUnits="userSpaceOnUse"><stop stop-color="#FCC344"/><stop offset="1" stop-color="#D48000"/></linearGradient><linearGradient id="paint12_linear" x1="84.493" y1="64.838" x2="84.493" y2="68.464" gradientUnits="userSpaceOnUse"><stop stop-color="#FCC344"/><stop offset="1" stop-color="#D48000"/></linearGradient><linearGradient id="paint13_linear" x1="84.494" y1="67.684" x2="84.494" y2="62.153" gradientUnits="userSpaceOnUse"><stop stop-color="#D48000" stop-opacity="0"/><stop offset="1" stop-color="#D48000"/></linearGradient><linearGradient id="paint14_linear" x1="84.493" y1="60.16" x2="84.493" y2="64.672" gradientUnits="userSpaceOnUse"><stop stop-color="#FCC344"/><stop offset="1" stop-color="#D48000"/></linearGradient><linearGradient id="paint15_linear" x1="57.499" y1="89.944" x2="57.499" y2="109.388" gradientUnits="userSpaceOnUse"><stop stop-color="#4D4D4D" stop-opacity="0"/><stop offset="1"/></linearGradient><linearGradient id="paint16_linear" x1="57.499" y1="12.131" x2="57.499" y2="22.292" gradientUnits="userSpaceOnUse"><stop stop-color="#FCC344"/><stop offset="1" stop-color="#D48000"/></linearGradient><linearGradient id="paint17_linear" x1="64.21" y1="105.061" x2="64.21" y2="86.061" gradientUnits="userSpaceOnUse"><stop stop-color="#1A1A1A" stop-opacity="0"/><stop offset="1"/></linearGradient><linearGradient id="paint18_linear" x1="57.499" y1="91.998" x2="57.499" y2="95.493" gradientUnits="userSpaceOnUse"><stop stop-color="#FCC344"/><stop offset="1" stop-color="#D48000"/></linearGradient></defs></svg>