<svg width="115" height="115" fill="none" xmlns="http://www.w3.org/2000/svg"><g clip-path="url(#clip0)"><path d="M111.809 96.431H3.191A3.191 3.191 0 010 93.241V36.545a3.191 3.191 0 013.191-3.191H111.81a3.191 3.191 0 013.191 3.19V93.24a3.191 3.191 0 01-3.191 3.191z" fill="url(#paint0_linear)"/><path d="M109.448 94.245H5.552a3.01 3.01 0 01-3.01-3.01V38.55a3.01 3.01 0 013.01-3.01h103.896a3.01 3.01 0 013.009 3.01v52.684a3.01 3.01 0 01-3.009 3.01z" fill="url(#paint1_linear)"/><path d="M105.355 52.645c-5.327 0-9.645-4.318-9.645-9.645 0-.219.007-.436.022-.65a1.785 1.785 0 00-1.78-1.909H21.048c-1.034 0-1.85.876-1.78 1.908a9.645 9.645 0 01-9.623 10.296h-.019c-1-.002-1.822.786-1.822 1.786v20.924c0 1 .822 1.788 1.822 1.786h.02c5.326 0 9.644 4.319 9.644 9.645 0 .219-.007.436-.022.651a1.785 1.785 0 001.78 1.908h72.903c1.035 0 1.85-.876 1.78-1.908a9.607 9.607 0 01-.022-.65c0-5.328 4.319-9.646 9.645-9.646h.019c1.001.002 1.822-.785 1.822-1.786V54.431c0-1-.821-1.788-1.822-1.786h-.018z" fill="url(#paint2_linear)"/><path d="M57.5 86.865c12.135 0 21.972-9.837 21.972-21.972 0-12.135-9.837-21.972-21.972-21.972-12.135 0-21.972 9.837-21.972 21.972 0 12.135 9.837 21.972 21.972 21.972z" fill="url(#paint3_linear)"/><path d="M66.127 51.628c-.334-.523-.98-.958-1.944-1.305a15.017 15.017 0 00-3.316-.764 1.613 1.613 0 00-.191-.105l-1.736-1.86a1.46 1.46 0 00-.881-.3c-.344 0-.638.1-.881.3-.244.2-.366.43-.366.688v1.246c-2.32.258-4.262 1.031-5.823 2.32-1.562 1.29-2.343 3.18-2.343 5.669 0 .886.1 1.694.3 2.423.201.73.53 1.366.99 1.909a15.86 15.86 0 001.31 1.394l.01.008 5.407 5.407c.05.054.1.104.149.156v7.19c-1.27-.087-2.388-.415-3.355-.987-.967-.572-1.727-1.108-2.28-1.609-.553-.5-1-.75-1.34-.75-.513 0-.968.271-1.367.815-.4.543-.598 1.086-.598 1.63 0 .868.49 1.724 1.468 2.568l18.761 18.76h42.83L66.128 51.628z" fill="url(#paint4_linear)"/><path d="M47.873 75.103c0-.544.198-1.087.597-1.63.4-.544.854-.816 1.368-.816.34 0 .786.251 1.34.751.553.501 1.312 1.037 2.28 1.609.966.572 2.084.9 3.354.986V65.924c-.86-.314-1.519-.565-1.977-.75a37.55 37.55 0 01-1.826-.816c-.76-.357-1.348-.729-1.763-1.115-.415-.386-.852-.85-1.31-1.394a4.944 4.944 0 01-.989-1.908c-.2-.73-.3-1.538-.3-2.424 0-2.489.78-4.379 2.342-5.668 1.561-1.29 3.503-2.063 5.823-2.32v-1.247c0-.258.122-.487.366-.688.243-.2.537-.3.88-.3.316 0 .61.1.882.3.272.2.408.43.408.688v1.16c1.747.058 3.36.351 4.835.881 1.476.53 2.214 1.268 2.214 2.213 0 .516-.174 1.054-.52 1.612-.347.56-.81.838-1.387.838-.229 0-.857-.243-1.883-.73a9.138 9.138 0 00-3.259-.86v8.71c1.14.43 2.087.837 2.842 1.223.755.386 1.554.922 2.394 1.609a6.431 6.431 0 011.902 2.594c.427 1.044.641 2.267.641 3.668 0 2.56-.698 4.594-2.094 6.104-1.397 1.51-3.291 2.437-5.685 2.782v1.436c0 .253-.136.478-.408.675a1.476 1.476 0 01-.881.296 1.36 1.36 0 01-.881-.295c-.244-.198-.366-.422-.366-.676v-1.307c-2.492-.029-4.606-.599-6.34-1.711-1.733-1.112-2.6-2.246-2.6-3.401zM52.9 57.088c0 1.116.347 1.967 1.043 2.552.694.586 1.736 1.137 3.126 1.651v-7.813c-2.78.344-4.169 1.547-4.169 3.61zm6.19 18.83c2.52-.458 3.781-1.874 3.781-4.247 0-1.258-.33-2.244-.988-2.959-.66-.715-1.59-1.33-2.794-1.845v9.05z" fill="url(#paint5_linear)"/><path d="M24.113 67.304H12.57a.911.911 0 01-.912-.91v-3.001c0-.503.408-.911.912-.911h11.544c.503 0 .911.408.911.911v3a.911.911 0 01-.91.911zM30.662 67.304h-1.99a.911.911 0 01-.912-.91v-3.001c0-.503.408-.911.912-.911h1.99c.503 0 .911.408.911.911v3a.911.911 0 01-.91.911zM91.552 67.304h-7.214a.911.911 0 01-.911-.91v-3.001c0-.503.407-.911.91-.911h7.215c.504 0 .912.408.912.911v3a.911.911 0 01-.912.911zM102.431 67.304H96.03a.911.911 0 01-.912-.91v-3.001c0-.503.408-.911.912-.911h6.401c.504 0 .912.408.912.911v3a.912.912 0 01-.912.911z" fill="#4AB272"/><path d="M39.041 33.355h-32.2l-.732.73c-1.651 1.652-.971 4.27.909 5.13.31.66 3.859 4.236 4.507 4.56l-.001 16.165c0 .25.04.445.114.597.174.357 25.336 25.121 36.292 35.894h54.188L39.041 33.355z" fill="url(#paint6_linear)"/><path d="M34.352 42.673l-.002 17.265c0 1.266-1.026 1.123-2.292 1.123l-18.242.002c-1.266 0-2.292.143-2.292-1.123l.002-17.265a3.172 3.172 0 00-3.173-3.173c-2.827 0-4.242-3.417-2.243-5.416l14.587-14.588a3.173 3.173 0 014.487 0L39.77 34.082c1.998 2 .583 5.417-2.244 5.417a3.174 3.174 0 00-3.173 3.174z" fill="url(#paint7_linear)"/><path d="M14.105 58.482l.001-15.808a5.759 5.759 0 00-5.753-5.753.55.55 0 01-.547-.365.55.55 0 01.128-.646l14.587-14.587a.58.58 0 01.42-.174.58.58 0 01.418.174l14.585 14.585a.549.549 0 01.128.645.55.55 0 01-.547.366 5.762 5.762 0 00-5.755 5.754l-.001 15.808-17.664.001z" fill="url(#paint8_linear)"/><path d="M32.058 61.062c1.266 0 2.292.142 2.292-1.124l.001-17.265a3.174 3.174 0 013.174-3.173c2.827 0 4.242-3.419 2.244-5.417L25.184 19.498a3.162 3.162 0 00-2.244-.93l-.004 42.495 9.122-.001z" fill="url(#paint9_linear)"/></g><defs><linearGradient id="paint0_linear" x1="51.457" y1="49.606" x2="83.7" y2="131.176" gradientUnits="userSpaceOnUse"><stop stop-color="#4AB272"/><stop offset="1" stop-color="#077565"/></linearGradient><linearGradient id="paint1_linear" x1="62.35" y1="75.325" x2=".345" y2="-58.054" gradientUnits="userSpaceOnUse"><stop stop-color="#92F37F" stop-opacity="0"/><stop offset="1" stop-color="#FFEE83"/></linearGradient><linearGradient id="paint2_linear" x1="53.518" y1="52.814" x2="71.477" y2="107.289" gradientUnits="userSpaceOnUse"><stop stop-color="#92F37F"/><stop offset="1" stop-color="#4AB272"/></linearGradient><linearGradient id="paint3_linear" x1="74.354" y1="75.848" x2="8.233" y2="32.87" gradientUnits="userSpaceOnUse"><stop stop-color="#92F37F"/><stop offset="1" stop-color="#4AB272"/></linearGradient><linearGradient id="paint4_linear" x1="72.996" y1="76.186" x2="26.516" y2="55.609" gradientUnits="userSpaceOnUse"><stop stop-color="#4AB272" stop-opacity="0"/><stop offset="1" stop-color="#009245"/></linearGradient><linearGradient id="paint5_linear" x1="55.412" y1="63.011" x2="73.416" y2="75.136" gradientUnits="userSpaceOnUse"><stop stop-color="#4AB272"/><stop offset="1" stop-color="#077565"/></linearGradient><linearGradient id="paint6_linear" x1="51.921" y1="70.041" x2="18.999" y2="13.97" gradientUnits="userSpaceOnUse"><stop stop-color="#4AB272" stop-opacity="0"/><stop offset="1" stop-color="#009245"/></linearGradient><linearGradient id="paint7_linear" x1="13.876" y1="36.778" x2="39.797" y2="55.482" gradientUnits="userSpaceOnUse"><stop stop-color="#FFDA45"/><stop offset="1" stop-color="#FFA425"/></linearGradient><linearGradient id="paint8_linear" x1="27.411" y1="43.965" x2="-2.071" y2="30.099" gradientUnits="userSpaceOnUse"><stop stop-color="#FFDA45" stop-opacity="0"/><stop offset="1" stop-color="#FFEE83"/></linearGradient><linearGradient id="paint9_linear" x1="30.734" y1="36.36" x2="3.221" y2="77.371" gradientUnits="userSpaceOnUse"><stop stop-color="#FFDA45" stop-opacity="0"/><stop offset="1" stop-color="#B53759"/></linearGradient><clipPath id="clip0"><path fill="#fff" d="M0 0h115v115H0z"/></clipPath></defs></svg>