<svg width="115" height="115" fill="none" xmlns="http://www.w3.org/2000/svg"><g clip-path="url(#clip0)"><path d="M57.404 50.452C42.481 50.504 30.5 62.823 30.5 77.747v35.897c0 1.094 1.23 1.736 2.127 1.11L54.94 99.208a4.478 4.478 0 015.12 0l22.313 15.546c.898.626 2.128-.016 2.128-1.11v-36.19c0-14.945-12.14-27.053-27.097-27.002z" fill="url(#paint0_linear)"/><path d="M84.501 113.644v-36.19c0-14.945-12.14-27.053-27.096-27.002-12.826.045-23.48 9.151-26.221 21.184l.075.335 26.44 26.44a4.47 4.47 0 012.361.797l22.314 15.547c.897.625 2.127-.017 2.127-1.111z" fill="url(#paint1_linear)"/><path d="M41.986 55.423v52.81l-5.752 4.007V60.954a27.268 27.268 0 015.747-5.526l.005-.005z" fill="url(#paint2_linear)"/><path d="M78.766 60.815v51.425l-5.752-4.007V55.354a27.154 27.154 0 015.752 5.46z" fill="url(#paint3_linear)"/><path d="M57.5 50.453v47.95c.895 0 1.79.269 2.56.805l22.313 15.547c.898.625 2.128-.017 2.128-1.111v-36.19c0-14.913-12.089-27-27.001-27z" fill="url(#paint4_linear)"/><path d="M82.374 110.378L60.06 94.831a4.478 4.478 0 00-5.12 0l-22.313 15.547c-.898.625-2.128-.017-2.128-1.111v4.377c0 1.094 1.23 1.736 2.128 1.111L54.94 99.208a4.478 4.478 0 015.12 0l22.314 15.547c.897.625 2.127-.017 2.127-1.111v-4.377c0 1.094-1.23 1.736-2.127 1.111z" fill="url(#paint5_linear)"/><path d="M41.986 55.422V82.7l-5.752-5.751V60.953l.349-.44c.124-.153.252-.31.38-.46l.316-.37a25.085 25.085 0 01.903-.98c.215-.227.438-.447.662-.664.22-.213.442-.424.672-.628.04-.04.082-.076.123-.112a23.88 23.88 0 011.228-1.036l.269-.209c.183-.142.366-.28.552-.414.096-.074.195-.142.293-.213l.005-.005z" fill="url(#paint6_linear)"/><path d="M78.766 60.815v51.425l-5.752-4.007V55.354a27.154 27.154 0 015.752 5.46z" fill="url(#paint7_linear)"/><path d="M97.827 36.064C97.827 16.146 79.772 0 57.5 0S17.173 16.146 17.173 36.064v8.526c0 19.917 18.055 36.064 40.327 36.064S97.827 64.507 97.827 44.59v-8.526z" fill="url(#paint8_linear)"/><path d="M97.827 36.064C97.827 16.146 79.772 0 57.5 0S17.173 16.146 17.173 36.064v8.526c0 19.917 18.055 36.064 40.327 36.064S97.827 64.507 97.827 44.59v-8.526z" fill="url(#paint9_linear)"/><path d="M90.713 15.608C83.439 6.18 71.277 0 57.5 0 43.723 0 31.561 6.18 24.287 15.608v49.438c7.274 9.428 19.436 15.608 33.213 15.608 13.777 0 25.939-6.18 33.213-15.608V15.608z" fill="url(#paint10_linear)"/><path d="M33.847 73.8c6.645 4.31 14.816 6.854 23.653 6.854 8.837 0 17.008-2.544 23.653-6.855V6.855C74.508 2.544 66.337 0 57.5 0c-8.837 0-17.008 2.544-23.653 6.855v66.944z" fill="url(#paint11_linear)"/><path d="M48.338 79.719c2.943.611 6.01.935 9.162.935 3.152 0 6.219-.324 9.162-.935V.934A45.024 45.024 0 0057.5 0c-3.152 0-6.219.324-9.162.935V79.72z" fill="url(#paint12_linear)"/><path d="M57.5 72.128c22.272 0 40.327-16.146 40.327-36.064S79.772 0 57.5 0 17.173 16.146 17.173 36.064 35.228 72.128 57.5 72.128z" fill="url(#paint13_linear)"/><path d="M57.5 68.106c19.788 0 35.83-14.346 35.83-32.042S77.287 4.022 57.5 4.022c-19.788 0-35.83 14.346-35.83 32.042S37.713 68.106 57.5 68.106z" fill="url(#paint14_linear)"/><path d="M57.5 65.071c17.914 0 32.436-12.987 32.436-29.007 0-16.02-14.522-29.007-32.436-29.007S25.064 20.044 25.064 36.064c0 16.02 14.522 29.007 32.436 29.007z" fill="url(#paint15_linear)"/><path d="M97.15 42.668L82.516 28.034a1.791 1.791 0 00-1.38-1.006l-6.811-.99-15.181-15.145a1.808 1.808 0 00-1.644-1.03c-.656 0-1.311.345-1.644 1.03l-6.764 13.92-15.228 2.215a1.8 1.8 0 00-1.478 1.249 1.803 1.803 0 00.476 1.882L43.654 40.92c.023.03.05.06.075.09L41.235 55.56c-.127.734.19 1.386.704 1.77l14.79 14.79c.256.004.513.008.771.008 19.75 0 36.18-12.697 39.65-29.46z" fill="url(#paint16_linear)"/><path d="M82.614 28.277a1.8 1.8 0 00-1.478-1.25l-15.228-2.214-6.764-13.92a1.809 1.809 0 00-1.644-1.03c-.656 0-1.311.345-1.644 1.03l-6.764 13.92-15.228 2.215a1.8 1.8 0 00-1.478 1.249 1.803 1.803 0 00.476 1.882l10.94 10.427-2.567 14.974c-.127.733.19 1.386.704 1.77.519.389 1.24.51 1.912.173L57.5 50.7l13.65 6.803a1.807 1.807 0 001.91-.172 1.803 1.803 0 00.705-1.772l-2.567-14.973 10.94-10.427a1.803 1.803 0 00.476-1.882zM57.5 36.242l-.023.006.01-.01.013-.02.013.02.01.01-.023-.006z" fill="url(#paint17_linear)"/><path d="M57.487 36.238l-.01.01-13.675 4.338-10.94-10.428a1.803 1.803 0 01-.476-1.882l25.1 7.962z" fill="url(#paint18_linear)"/><path d="M57.477 36.248L41.94 57.331a1.802 1.802 0 01-.704-1.771L43.8 40.586l13.676-4.338z" fill="url(#paint19_linear)"/><path d="M73.06 57.33a1.806 1.806 0 01-1.91.173L57.5 50.7V36.24l.023.007L73.06 57.33z" fill="url(#paint20_linear)"/><path d="M57.5 36.242V50.7l-13.65 6.803a1.807 1.807 0 01-1.91-.172l15.537-21.083.023-.006z" fill="url(#paint21_linear)"/><path d="M73.06 57.33L57.524 36.248l13.675 4.338 2.567 14.973a1.802 1.802 0 01-.704 1.771z" fill="url(#paint22_linear)"/><path d="M57.5 36.219l-.013.02-25.1-7.962a1.8 1.8 0 011.477-1.25l15.228-2.214L57.5 36.22z" fill="url(#paint23_linear)"/><path d="M65.908 24.813L57.5 36.219V9.862c.656 0 1.311.346 1.644 1.03l6.764 13.921z" fill="url(#paint24_linear)"/><path d="M57.5 9.862v26.356l-8.408-11.405 6.764-13.92a1.808 1.808 0 011.644-1.03z" fill="url(#paint25_linear)"/><path d="M82.614 28.277l-25.1 7.961-.014-.02 8.408-11.405 15.228 2.215a1.799 1.799 0 011.478 1.249z" fill="url(#paint26_linear)"/><path d="M82.138 30.159l-10.94 10.427-13.675-4.338-.01-.01 25.101-7.961a1.804 1.804 0 01-.476 1.882z" fill="url(#paint27_linear)"/><path d="M78.36 29.209a1.495 1.495 0 00-1.227-1.038l-12.649-1.84-5.619-11.562a1.502 1.502 0 00-1.365-.856c-.544 0-1.09.287-1.365.856l-5.62 11.563-12.648 1.84c-.626.089-1.062.52-1.227 1.037a1.498 1.498 0 00.395 1.563l9.087 8.661-2.133 12.438c-.105.61.158 1.151.586 1.47a1.5 1.5 0 001.587.145L57.5 47.834l11.338 5.652a1.5 1.5 0 001.588-.144c.427-.32.69-.862.585-1.471l-2.132-12.438 9.086-8.661a1.498 1.498 0 00.396-1.563zM57.5 35.825l-.019.005.008-.008.011-.016.01.016.009.008-.019-.005z" fill="url(#paint28_linear)"/><path d="M57.5 61.996c16.015 0 28.998-11.61 28.998-25.932S73.515 10.132 57.5 10.132s-28.998 11.61-28.998 25.932S41.485 61.996 57.5 61.996z" fill="url(#paint29_linear)"/></g><defs><linearGradient id="paint0_linear" x1="42.385" y1="71.528" x2="84.478" y2="126.284" gradientUnits="userSpaceOnUse"><stop stop-color="#4A98F7"/><stop offset="1" stop-color="#0469BC"/></linearGradient><linearGradient id="paint1_linear" x1="59.494" y1="97.348" x2="57.613" y2="70.827" gradientUnits="userSpaceOnUse"><stop stop-color="#0469BC" stop-opacity="0"/><stop offset="1" stop-color="#0469BC"/></linearGradient><linearGradient id="paint2_linear" x1="31.022" y1="73.31" x2="55.3" y2="104.892" gradientUnits="userSpaceOnUse"><stop stop-color="#F9F7FC"/><stop offset="1" stop-color="#F0DDFC"/></linearGradient><linearGradient id="paint3_linear" x1="66.043" y1="71.715" x2="94.217" y2="108.364" gradientUnits="userSpaceOnUse"><stop stop-color="#F9F7FC"/><stop offset="1" stop-color="#F0DDFC"/></linearGradient><linearGradient id="paint4_linear" x1="68.681" y1="79.364" x2="23.174" y2="46.294" gradientUnits="userSpaceOnUse"><stop stop-color="#18CFFC" stop-opacity="0"/><stop offset="1" stop-color="#65E1DC"/></linearGradient><linearGradient id="paint5_linear" x1="57.5" y1="109.646" x2="57.5" y2="71.114" gradientUnits="userSpaceOnUse"><stop stop-color="#0469BC" stop-opacity="0"/><stop offset="1" stop-color="#0469BC"/></linearGradient><linearGradient id="paint6_linear" x1="39.11" y1="97.729" x2="39.11" y2="69.31" gradientUnits="userSpaceOnUse"><stop stop-color="#F0DDFC" stop-opacity="0"/><stop offset=".289" stop-color="#C8B7E0" stop-opacity=".289"/><stop offset=".592" stop-color="#A595C8" stop-opacity=".592"/><stop offset=".84" stop-color="#8F81B8" stop-opacity=".84"/><stop offset="1" stop-color="#8779B3"/></linearGradient><linearGradient id="paint7_linear" x1="75.89" y1="97.729" x2="75.89" y2="69.31" gradientUnits="userSpaceOnUse"><stop stop-color="#F0DDFC" stop-opacity="0"/><stop offset=".289" stop-color="#C8B7E0" stop-opacity=".289"/><stop offset=".592" stop-color="#A595C8" stop-opacity=".592"/><stop offset=".84" stop-color="#8F81B8" stop-opacity=".84"/><stop offset="1" stop-color="#8779B3"/></linearGradient><linearGradient id="paint8_linear" x1="17.173" y1="40.327" x2="97.827" y2="40.327" gradientUnits="userSpaceOnUse"><stop stop-color="#FFDA45"/><stop offset="1" stop-color="#FFA425"/></linearGradient><linearGradient id="paint9_linear" x1="75.586" y1="46.19" x2="104.369" y2="55.521" gradientUnits="userSpaceOnUse"><stop stop-color="#FFDA45" stop-opacity="0"/><stop offset=".519" stop-color="#D9874F" stop-opacity=".519"/><stop offset="1" stop-color="#B53759"/></linearGradient><linearGradient id="paint10_linear" x1="53.661" y1="32.945" x2="86.808" y2="96.688" gradientUnits="userSpaceOnUse"><stop stop-color="#FFDA45" stop-opacity="0"/><stop offset=".519" stop-color="#D9874F" stop-opacity=".519"/><stop offset="1" stop-color="#B53759"/></linearGradient><linearGradient id="paint11_linear" x1="56.259" y1="52.911" x2="52.344" y2="92.621" gradientUnits="userSpaceOnUse"><stop stop-color="#FFDA45" stop-opacity="0"/><stop offset=".519" stop-color="#D9874F" stop-opacity=".519"/><stop offset="1" stop-color="#B53759"/></linearGradient><linearGradient id="paint12_linear" x1="49.513" y1="54.935" x2="37.41" y2="77.07" gradientUnits="userSpaceOnUse"><stop stop-color="#FFDA45" stop-opacity="0"/><stop offset=".519" stop-color="#D9874F" stop-opacity=".519"/><stop offset="1" stop-color="#B53759"/></linearGradient><linearGradient id="paint13_linear" x1="17.173" y1="36.064" x2="97.827" y2="36.064" gradientUnits="userSpaceOnUse"><stop stop-color="#FFDA45"/><stop offset="1" stop-color="#FFA425"/></linearGradient><linearGradient id="paint14_linear" x1="93.329" y1="36.064" x2="21.671" y2="36.064" gradientUnits="userSpaceOnUse"><stop stop-color="#FFDA45"/><stop offset="1" stop-color="#FFA425"/></linearGradient><linearGradient id="paint15_linear" x1="25.064" y1="36.064" x2="89.936" y2="36.064" gradientUnits="userSpaceOnUse"><stop stop-color="#FFDA45"/><stop offset="1" stop-color="#FFA425"/></linearGradient><linearGradient id="paint16_linear" x1="100.583" y1="76.563" x2="19.471" y2="6.908" gradientUnits="userSpaceOnUse"><stop stop-color="#FFDA45" stop-opacity="0"/><stop offset=".519" stop-color="#D9874F" stop-opacity=".519"/><stop offset="1" stop-color="#B53759"/></linearGradient><linearGradient id="paint17_linear" x1="47.704" y1="27.585" x2="85.891" y2="67.148" gradientUnits="userSpaceOnUse"><stop stop-color="#FFDA45"/><stop offset="1" stop-color="#FCB37E"/></linearGradient><linearGradient id="paint18_linear" x1="41.856" y1="29.66" x2="65.607" y2="54.995" gradientUnits="userSpaceOnUse"><stop stop-color="#FCB37E" stop-opacity="0"/><stop offset="1" stop-color="#FF7044"/></linearGradient><linearGradient id="paint19_linear" x1="41.206" y1="46.789" x2="57.477" y2="46.789" gradientUnits="userSpaceOnUse"><stop stop-color="#FFDA45"/><stop offset="1" stop-color="#FCB37E"/></linearGradient><linearGradient id="paint20_linear" x1="53.618" y1="39.088" x2="81.416" y2="70.404" gradientUnits="userSpaceOnUse"><stop stop-color="#FCB37E" stop-opacity="0"/><stop offset="1" stop-color="#FF7044"/></linearGradient><linearGradient id="paint21_linear" x1="37.698" y1="47.404" x2="73.413" y2="46.173" gradientUnits="userSpaceOnUse"><stop stop-color="#FCB37E" stop-opacity="0"/><stop offset="1" stop-color="#FF7044"/></linearGradient><linearGradient id="paint22_linear" x1="69.622" y1="61.791" x2="60.474" y2="21.15" gradientUnits="userSpaceOnUse"><stop stop-color="#FFDA45"/><stop offset="1" stop-color="#FCB37E"/></linearGradient><linearGradient id="paint23_linear" x1="43.737" y1="27.033" x2="49.191" y2="50.608" gradientUnits="userSpaceOnUse"><stop stop-color="#FFDA45"/><stop offset="1" stop-color="#FCB37E"/></linearGradient><linearGradient id="paint24_linear" x1="66.96" y1="26.715" x2="33.18" y2="13.344" gradientUnits="userSpaceOnUse"><stop stop-color="#FCB37E" stop-opacity="0"/><stop offset="1" stop-color="#FF7044"/></linearGradient><linearGradient id="paint25_linear" x1="52.294" y1="15.627" x2="69.711" y2="45.36" gradientUnits="userSpaceOnUse"><stop stop-color="#FCB37E" stop-opacity="0"/><stop offset="1" stop-color="#FF7044"/></linearGradient><linearGradient id="paint26_linear" x1="73.901" y1="26.864" x2="41.529" y2="55.541" gradientUnits="userSpaceOnUse"><stop stop-color="#FCB37E" stop-opacity="0"/><stop offset="1" stop-color="#FF7044"/></linearGradient><linearGradient id="paint27_linear" x1="68.084" y1="38.518" x2="79.344" y2="6.146" gradientUnits="userSpaceOnUse"><stop stop-color="#FCB37E" stop-opacity="0"/><stop offset="1" stop-color="#FF7044"/></linearGradient><linearGradient id="paint28_linear" x1="58.161" y1="36.511" x2="47.221" y2="20.708" gradientUnits="userSpaceOnUse"><stop stop-color="#FFDA45" stop-opacity="0"/><stop offset="1" stop-color="#FFEE83"/></linearGradient><linearGradient id="paint29_linear" x1="55.512" y1="33.306" x2="34.202" y2="3.748" gradientUnits="userSpaceOnUse"><stop stop-color="#FFDA45" stop-opacity="0"/><stop offset="1" stop-color="#FCEE21"/></linearGradient><clipPath id="clip0"><path fill="#fff" d="M0 0h115v115H0z"/></clipPath></defs></svg>